<svg width="152" height="24" viewBox="0 0 152 24" fill="none" xmlns="http://www.w3.org/2000/svg">
<path fill-rule="evenodd" clip-rule="evenodd" d="M11.9929 1.00195C12.3735 1.00195 12.7211 1.21805 12.8896 1.55939L15.7428 7.34073L22.1223 8.26529C22.4992 8.31992 22.8123 8.58388 22.93 8.94609C23.0476 9.30831 22.9493 9.70589 22.6764 9.97153L18.0534 14.4715L19.1435 20.8259C19.2079 21.2012 19.0535 21.5805 18.7453 21.8042C18.4371 22.0279 18.0286 22.0572 17.6917 21.8796L11.9993 18.88L6.29323 21.8801C5.9563 22.0572 5.54803 22.0277 5.24008 21.804C4.93213 21.5802 4.7779 21.2011 4.84226 20.8259L5.9323 14.4715L1.30935 9.97153C1.03646 9.70589 0.938133 9.30831 1.05576 8.94609C1.17338 8.58388 1.48654 8.31992 1.86344 8.26529L8.2429 7.34073L11.0961 1.55939C11.2646 1.21805 11.6122 1.00195 11.9929 1.00195Z" fill="#FF574A"/>
<path fill-rule="evenodd" clip-rule="evenodd" d="M43.9938 1.00195C44.3745 1.00195 44.7221 1.21805 44.8906 1.55939L47.7438 7.34073L54.1233 8.26529C54.5002 8.31992 54.8133 8.58388 54.9309 8.94609C55.0486 9.30831 54.9502 9.70589 54.6774 9.97153L50.0544 14.4715L51.1444 20.8259C51.2088 21.2012 51.0544 21.5805 50.7462 21.8042C50.4381 22.0279 50.0296 22.0572 49.6926 21.8796L44.0003 18.88L38.2942 21.8801C37.9573 22.0572 37.549 22.0277 37.2411 21.804C36.9331 21.5802 36.7789 21.2011 36.8432 20.8259L37.9333 14.4715L33.3103 9.97153C33.0374 9.70589 32.9391 9.30831 33.0567 8.94609C33.1744 8.58388 33.4875 8.31992 33.8644 8.26529L40.2439 7.34073L43.0971 1.55939C43.2656 1.21805 43.6132 1.00195 43.9938 1.00195Z" fill="#FF574A"/>
<path fill-rule="evenodd" clip-rule="evenodd" d="M75.9929 1.00195C76.3735 1.00195 76.7211 1.21805 76.8896 1.55939L79.7428 7.34073L86.1223 8.26529C86.4992 8.31992 86.8123 8.58388 86.93 8.94609C87.0476 9.30831 86.9493 9.70589 86.6764 9.97153L82.0534 14.4715L83.1435 20.8259C83.2079 21.2012 83.0535 21.5805 82.7453 21.8042C82.4371 22.0279 82.0286 22.0572 81.6917 21.8796L75.9993 18.88L70.2932 21.8801C69.9563 22.0572 69.548 22.0277 69.2401 21.804C68.9321 21.5802 68.7779 21.2011 68.8423 20.8259L69.9323 14.4715L65.3094 9.97153C65.0365 9.70589 64.9381 9.30831 65.0558 8.94609C65.1734 8.58388 65.4865 8.31992 65.8634 8.26529L72.2429 7.34073L75.0961 1.55939C75.2646 1.21805 75.6122 1.00195 75.9929 1.00195Z" fill="#FF574A"/>
<path fill-rule="evenodd" clip-rule="evenodd" d="M107.993 1.00195C108.374 1.00195 108.721 1.21805 108.89 1.55939L111.743 7.34073L118.122 8.26529C118.499 8.31992 118.812 8.58388 118.93 8.94609C119.048 9.30831 118.949 9.70589 118.676 9.97153L114.053 14.4715L115.143 20.8259C115.208 21.2012 115.053 21.5805 114.745 21.8042C114.437 22.0279 114.029 22.0572 113.692 21.8796L107.999 18.88L102.293 21.8801C101.956 22.0572 101.548 22.0277 101.24 21.804C100.932 21.5802 100.778 21.2011 100.842 20.8259L101.932 14.4715L97.3094 9.97153C97.0365 9.70589 96.9381 9.30831 97.0558 8.94609C97.1734 8.58388 97.4865 8.31992 97.8634 8.26529L104.243 7.34073L107.096 1.55939C107.265 1.21805 107.612 1.00195 107.993 1.00195Z" fill="#FF574A"/>
<path fill-rule="evenodd" clip-rule="evenodd" d="M139.993 1.00195C140.374 1.00195 140.721 1.21805 140.89 1.55939L143.743 7.34073L150.122 8.26529C150.499 8.31992 150.812 8.58388 150.93 8.94609C151.048 9.30831 150.949 9.70589 150.676 9.97153L146.053 14.4715L147.143 20.8259C147.208 21.2012 147.053 21.5805 146.745 21.8042C146.437 22.0279 146.029 22.0572 145.692 21.8796L139.999 18.88L134.293 21.8801C133.956 22.0572 133.548 22.0277 133.24 21.804C132.932 21.5802 132.778 21.2011 132.842 20.8259L133.932 14.4715L129.309 9.97153C129.036 9.70589 128.938 9.30831 129.056 8.94609C129.173 8.58388 129.487 8.31992 129.863 8.26529L136.243 7.34073L139.096 1.55939C139.265 1.21805 139.612 1.00195 139.993 1.00195Z" fill="#FF574A"/>
<mask id="mask0_337_1320" style="mask-type:alpha" maskUnits="userSpaceOnUse" x="129" y="1" width="22" height="21">
<path fill-rule="evenodd" clip-rule="evenodd" d="M139.993 1.00195C140.374 1.00195 140.721 1.21805 140.89 1.55939L143.743 7.34073L150.122 8.26529C150.499 8.31992 150.812 8.58388 150.93 8.94609C151.048 9.30831 150.949 9.70589 150.676 9.97153L146.053 14.4715L147.143 20.8259C147.208 21.2012 147.053 21.5805 146.745 21.8042C146.437 22.0279 146.029 22.0572 145.692 21.8796L139.999 18.88L134.293 21.8801C133.956 22.0572 133.548 22.0277 133.24 21.804C132.932 21.5802 132.778 21.2011 132.842 20.8259L133.932 14.4715L129.309 9.97153C129.036 9.70589 128.938 9.30831 129.056 8.94609C129.173 8.58388 129.487 8.31992 129.863 8.26529L136.243 7.34073L139.096 1.55939C139.265 1.21805 139.612 1.00195 139.993 1.00195Z" fill="#FF574A"/>
</mask>
<g mask="url(#mask0_337_1320)">
<rect x="140" y="-4" width="31" height="31" fill="#FFD1CD"/>
</g>
</svg>
